<svg xmlns="http://www.w3.org/2000/svg" width="512" height="512" viewBox="0 0 512 512" role="img" aria-label="StockAI Pro">
  <defs>
    <linearGradient id="bg" x1="0" y1="0" x2="0" y2="1">
      <stop offset="0%" stop-color="#121a32"/>
      <stop offset="100%" stop-color="#0b0f1c"/>
    </linearGradient>
    <radialGradient id="globeGlow" cx="50%" cy="42%" r="38%">
      <stop offset="0%" stop-color="#3b82f6" stop-opacity="0.35"/>
      <stop offset="100%" stop-color="#3b82f6" stop-opacity="0"/>
    </radialGradient>
    <linearGradient id="globeFill" x1="0" y1="0" x2="1" y2="1">
      <stop offset="0%" stop-color="#2563eb"/>
      <stop offset="100%" stop-color="#1d4ed8"/>
    </linearGradient>
    <linearGradient id="chartFill" x1="0" y1="1" x2="0" y2="0">
      <stop offset="0%" stop-color="#1e40af"/>
      <stop offset="100%" stop-color="#3b82f6"/>
    </linearGradient>
    <linearGradient id="lineGrad" x1="0" y1="0" x2="1" y2="0">
      <stop offset="0%" stop-color="#22d3ee"/>
      <stop offset="100%" stop-color="#26a69a"/>
    </linearGradient>
  </defs>
  <rect width="512" height="512" rx="96" fill="url(#bg)"/>
  <rect width="512" height="512" rx="96" fill="url(#globeGlow)"/>
  <!-- Globe -->
  <circle cx="256" cy="210" r="118" fill="url(#globeFill)" opacity="0.95"/>
  <ellipse cx="256" cy="210" rx="118" ry="42" fill="none" stroke="#60a5fa" stroke-width="3" opacity="0.55"/>
  <ellipse cx="256" cy="210" rx="42" ry="118" fill="none" stroke="#60a5fa" stroke-width="3" opacity="0.45"/>
  <path d="M138 210c28-52 68-78 118-78s90 26 118 78" fill="none" stroke="#93c5fd" stroke-width="3" opacity="0.5"/>
  <path d="M138 210c28 52 68 78 118 78s90-26 118-78" fill="none" stroke="#93c5fd" stroke-width="3" opacity="0.5"/>
  <!-- Chart bars -->
  <rect x="118" y="318" width="44" height="72" rx="6" fill="url(#chartFill)" opacity="0.85"/>
  <rect x="178" y="286" width="44" height="104" rx="6" fill="url(#chartFill)" opacity="0.9"/>
  <rect x="238" y="252" width="44" height="138" rx="6" fill="url(#chartFill)" opacity="0.95"/>
  <rect x="298" y="214" width="44" height="176" rx="6" fill="url(#chartFill)"/>
  <rect x="358" y="176" width="44" height="214" rx="6" fill="url(#chartFill)"/>
  <!-- Rising line + arrow -->
  <path d="M118 360 L178 300 L238 268 L298 220 L358 168 L402 128" fill="none" stroke="url(#lineGrad)" stroke-width="14" stroke-linecap="round" stroke-linejoin="round"/>
  <path d="M402 128 L368 124 L378 158 Z" fill="#26a69a"/>
</svg>
